<svg width="114" height="114" viewBox="0 0 114 114" fill="none" xmlns="http://www.w3.org/2000/svg">
<path d="M56.5679 66.5608C62.0046 66.5608 66.4119 62.1435 66.4119 56.6945C66.4119 51.2454 62.0046 46.8281 56.5679 46.8281C51.1312 46.8281 46.724 51.2454 46.724 56.6945C46.724 62.1435 51.1312 66.5608 56.5679 66.5608Z" fill="#F8D86C" stroke="#F8D86C" stroke-width="1.74" stroke-miterlimit="10"/>
<path d="M56.5679 75.1374C66.7306 75.1374 74.969 66.8802 74.969 56.6944C74.969 46.5087 66.7306 38.2514 56.5679 38.2514C46.4053 38.2514 38.1668 46.5087 38.1668 56.6944C38.1668 66.8802 46.4053 75.1374 56.5679 75.1374Z" stroke="#F8D86C" stroke-width="2" stroke-miterlimit="10"/>
<path d="M56.5679 83.4992C71.3381 83.4992 83.3117 71.4983 83.3117 56.6945C83.3117 41.8906 71.3381 29.8898 56.5679 29.8898C41.7977 29.8898 29.8241 41.8906 29.8241 56.6945C29.8241 71.4983 41.7977 83.4992 56.5679 83.4992Z" stroke="#F8D86C" stroke-width="2" stroke-miterlimit="10"/>
<path d="M56.5679 93.258C76.7155 93.258 93.0484 76.888 93.0484 56.6945C93.0484 36.501 76.7155 20.1309 56.5679 20.1309C36.4203 20.1309 20.0874 36.501 20.0874 56.6945C20.0874 76.888 36.4203 93.258 56.5679 93.258Z" stroke="#F8D86C" stroke-width="2" stroke-miterlimit="10"/>
<path d="M56.5679 103.038C82.1048 103.038 102.807 82.2895 102.807 56.6945C102.807 31.0994 82.1048 10.3505 56.5679 10.3505C31.031 10.3505 10.3292 31.0994 10.3292 56.6945C10.3292 82.2895 31.031 103.038 56.5679 103.038Z" stroke="#F8D86C" stroke-width="1.88" stroke-miterlimit="10"/>
<path d="M56.5679 112.389C87.2572 112.389 112.136 87.4536 112.136 56.6944C112.136 25.9353 87.2572 1 56.5679 1C25.8786 1 1 25.9353 1 56.6944C1 87.4536 25.8786 112.389 56.5679 112.389Z" stroke="#F8D86C" stroke-width="1.68" stroke-miterlimit="10"/>
<path d="M112.157 56.6945C112.157 87.4543 87.2793 112.389 56.5894 112.389C25.8994 112.389 1 87.4543 1 56.6945H112.157Z" fill="#F8D86C" stroke="#F8D86C" stroke-width="1.74" stroke-miterlimit="10"/>
</svg>
