<svg width="108" height="148" viewBox="0 0 108 148" fill="none" xmlns="http://www.w3.org/2000/svg">
<g clip-path="url(#clip0_28_16)">
<path d="M107.962 32.4073C107.655 29.7555 106.9 27.2313 105.774 24.809C104.15 21.3159 101.746 18.3582 99.3027 15.426C97.0644 12.7232 94.3017 10.6324 91.4495 8.64364C89.1984 7.07554 86.602 6.09389 84.287 4.64053C83.8266 4.36006 83.3661 4.07959 82.8673 3.87561C80.8721 3.08519 78.8384 2.37126 76.8559 1.55534C74.1061 0.420705 71.2922 -0.101993 68.3249 0.26772C67.404 0.382459 66.9564 0.101987 66.368 0.0637404C63.6949 -0.114742 61.5333 0.16573 60.5997 0.331464C59.7044 0.484448 58.1951 -0.063747 51.2373 4.75527C49.6897 5.82617 48.206 6.85881 46.3642 7.33052C44.369 7.84047 42.7958 9.34482 40.7366 9.71453C40.4808 9.76552 40.2505 10.0205 40.0075 10.1862C39.6878 10.3902 39.3936 10.6707 39.0483 10.7472C37.5902 11.1041 36.2344 11.7288 34.8275 12.2388C32.4869 13.0929 30.044 13.6411 27.665 14.3678C26.6674 14.6738 25.5419 14.814 24.7489 15.4132C23.4571 16.3821 21.9606 16.9176 20.5409 17.4658C17.4073 18.6896 14.3505 20.0537 11.2809 21.4179C8.65888 22.578 6.47177 24.4648 4.50208 26.5811C2.91611 28.3022 1.76499 30.2017 1.4964 32.573C1.44524 33.0192 1.39408 33.5037 1.21502 33.8989C0.626669 35.1992 0.306916 36.5761 0.217385 37.9785C0.0127422 41.1019 -0.434913 44.2253 1.52198 47.0938C2.34055 48.2922 3.01843 49.5543 4.13117 50.536C4.51487 50.8674 4.873 51.2371 5.0009 51.7343C5.20554 52.512 5.72994 53.073 6.33107 53.4809C7.81473 54.4753 9.31118 55.508 11.089 55.8777C13.5703 56.4004 15.8981 57.484 18.4306 57.7645C18.6352 57.79 18.827 57.892 19.0189 57.9685C20.1316 58.4402 21.2444 58.8864 22.3443 59.3708C23.4315 59.8425 24.5698 59.9318 25.6186 59.4856C26.8209 58.9629 28.1127 58.8609 29.3533 58.5294C29.7626 58.4147 30.1719 58.3764 30.5812 58.4912C32.4358 59.0011 34.3671 58.9884 36.26 59.1796C36.8356 59.2433 37.0274 59.3836 37.0914 59.9573C37.3216 62.1373 37.2704 64.3173 37.053 66.4846C37.2193 67.0201 37.3216 67.5683 37.3216 68.1292C37.4239 68.6264 37.5262 69.1364 37.5774 69.6591C37.6541 70.5132 37.5007 71.3801 37.36 72.2216C37.1937 73.1905 36.7588 74.0574 36.4519 74.988C36.4263 75.0645 36.3879 75.1283 36.3496 75.2048C36.3112 75.6255 36.2728 76.0462 36.1961 76.4669C36.0426 77.3975 36.0937 78.3537 35.7868 79.2843C35.1345 81.1839 34.0217 82.8285 32.9602 84.4986C32.1416 85.7862 31.0544 86.8698 30.1335 88.081C29.5836 88.7949 29.2126 89.6363 28.1639 89.7638C27.9464 89.7893 27.7802 90.057 27.5627 90.1973C26.6674 90.771 26.2325 91.7654 25.4396 92.441C24.135 93.5374 22.8943 94.7103 21.5769 95.7685C19.9654 97.0561 18.5457 98.5859 16.8574 99.7971C16.1027 100.332 15.3098 100.919 15.0028 101.901C14.9261 102.168 14.7214 102.411 14.504 102.602C14.018 103.048 13.5575 103.532 13.0843 103.991C12.8029 104.552 12.5215 105.113 12.2529 105.674C11.4343 107.344 10.4111 108.963 9.47745 110.633C9.26002 111.029 9.04259 111.437 8.83794 111.832C8.36471 112.75 7.94263 113.68 7.62288 114.637C7.50777 114.981 7.37987 115.287 7.23918 115.593C7.03453 116.931 6.79152 118.257 6.39503 119.57C5.67878 121.954 5.19275 124.389 5.1288 126.888C5.09043 128.558 5.51251 130.165 5.70436 131.809C6.12643 135.493 8.28797 138.158 10.5518 140.784C10.8716 141.154 11.3064 141.434 11.7285 141.689C13.5319 142.773 15.3481 143.844 17.2667 144.749C19.9014 145.986 22.6897 146.304 25.5291 146.177C27.8057 146.075 30.0824 145.782 32.3462 145.578C32.6788 145.552 33.0113 145.552 33.3439 145.578C35.7484 145.743 38.1274 146.126 40.5191 146.406C43.2306 146.725 45.9038 147.477 48.6665 147.324C48.999 147.312 49.3443 147.324 49.6129 147.567C50.2141 148.089 50.8664 148.038 51.6082 147.847C53.0918 147.477 54.5116 146.84 56.0847 146.802C58.2463 146.738 60.4078 146.547 62.5566 146.547C64.4239 146.547 66.189 146.253 67.8901 145.476C68.1842 145.336 68.4784 145.132 68.8365 145.259C69.7574 145.59 70.5248 145.17 71.3178 144.787C72.8654 144.061 74.1189 143.041 75.206 141.83C76.306 139.114 77.7768 136.577 79.2093 134.002C80.6546 131.427 82.0232 128.89 83.6987 126.531C83.9417 125.741 84.1463 124.963 84.2231 124.147C84.4533 121.929 84.3638 119.711 84.4661 117.48C84.594 114.866 84.1847 112.278 83.4685 109.741C82.6755 106.949 82.0232 104.132 81.2941 101.327C80.4244 97.9995 79.6186 94.6593 78.3012 91.4721C77.5978 89.7511 76.9327 88.0045 76.4211 86.2069C75.8839 84.3328 75.4107 82.4333 74.6177 80.6612C74.0549 79.3991 73.7096 78.086 73.4538 76.7474C73.0573 74.5928 72.6736 72.4383 72.2387 70.2837C72.0596 69.3913 71.6248 68.5754 71.6631 67.632C71.7271 65.8854 71.2411 64.2918 70.2562 62.8257C69.5784 61.8186 69.3609 60.6457 69.1691 59.2433C70.2051 59.919 70.8957 59.5238 71.4713 58.8226C71.6504 58.6059 71.7655 58.6059 71.9829 58.7079C72.5712 59.0011 73.134 58.8099 73.6456 58.5294C74.4386 58.0832 75.2955 57.9685 76.1653 57.9302C76.7025 57.9047 77.2397 57.8027 77.7768 57.7772C79.2349 57.7262 80.5779 57.0506 82.0743 57.1781C83.4812 57.2928 84.8626 57.1398 86.2567 56.7828C87.4206 56.4896 88.5206 55.9924 89.6717 55.7757C91.0658 55.508 92.2553 54.8833 93.368 54.0674C93.7389 53.7996 94.0075 53.3662 94.404 53.1877C96.0923 52.4483 97.1667 50.9822 98.4713 49.8093C100.415 48.05 101.822 45.8189 103.472 43.8174C104.38 42.721 105.097 41.4334 105.787 40.1967C106.299 39.2916 106.836 38.3354 107.194 37.341C107.488 36.5379 107.463 35.6327 107.719 34.8168C107.987 34.0009 108.026 33.1977 107.936 32.3818L107.962 32.4073Z" fill="#CEE495"/>
<path d="M107.962 32.4073C107.655 29.7555 106.9 27.2313 105.774 24.809C104.15 21.3159 101.746 18.3582 99.3027 15.426C97.0644 12.7232 94.3017 10.6324 91.4495 8.64364C89.1984 7.07554 86.602 6.09389 84.287 4.64053C83.8266 4.36006 83.3661 4.07959 82.8673 3.87561C80.8721 3.08519 78.8384 2.37126 76.8559 1.55534C74.1061 0.420705 71.2922 -0.101993 68.3249 0.26772C67.404 0.382459 66.9564 0.101987 66.368 0.0637404C63.6949 -0.114742 61.5333 0.16573 60.5997 0.331464C59.7044 0.484448 58.1951 -0.063747 51.2373 4.75527C49.6897 5.82617 48.206 6.85881 46.3642 7.33052C44.369 7.84047 42.7958 9.34482 40.7366 9.71453C40.4808 9.76552 40.2505 10.0205 40.0075 10.1862C39.6878 10.3902 39.3936 10.6707 39.0483 10.7472C37.5902 11.1041 36.2344 11.7288 34.8275 12.2388C32.4869 13.0929 30.044 13.6411 27.665 14.3678C26.6674 14.6738 25.5419 14.814 24.7489 15.4132C23.4571 16.3821 21.9606 16.9176 20.5409 17.4658C17.4073 18.6896 14.3505 20.0537 11.2809 21.4179C8.65888 22.578 6.47177 24.4648 4.50208 26.5811C2.91611 28.3022 1.76499 30.2017 1.4964 32.573C1.44524 33.0192 1.39408 33.5037 1.21502 33.8989C0.626669 35.1992 0.306916 36.5761 0.217385 37.9785C0.0127422 41.1019 -0.434913 44.2253 1.52198 47.0938C2.34055 48.2922 3.01843 49.5543 4.13117 50.536C4.51487 50.8674 4.873 51.2371 5.0009 51.7343C5.20554 52.512 5.72994 53.073 6.33107 53.4809C7.81473 54.4753 9.31118 55.508 11.089 55.8777C13.5703 56.4004 15.8981 57.484 18.4306 57.7645C18.6352 57.79 18.827 57.892 19.0189 57.9685C20.1316 58.4402 21.2444 58.8864 22.3443 59.3708C23.4315 59.8425 24.5698 59.9318 25.6186 59.4856C26.8209 58.9629 28.1127 58.8609 29.3533 58.5294C29.7626 58.4147 30.1719 58.3764 30.5812 58.4912C32.4358 59.0011 34.3671 58.9884 36.26 59.1796C36.8356 59.2433 37.0274 59.3836 37.0914 59.9573C37.3216 62.1373 37.2704 64.3173 37.053 66.4846C37.2193 67.0201 37.3216 67.5683 37.3216 68.1292C37.4239 68.6264 37.5262 69.1364 37.5774 69.6591C37.6541 70.5132 37.5007 71.3801 37.36 72.2216C37.1937 73.1905 36.7588 74.0574 36.4519 74.988C36.4263 75.0645 36.3879 75.1283 36.3496 75.2048C36.3112 75.6255 36.2728 76.0462 36.1961 76.4669C36.0426 77.3975 36.0937 78.3537 35.7868 79.2843C35.1345 81.1839 34.0217 82.8285 32.9602 84.4986C32.1416 85.7862 31.0544 86.8698 30.1335 88.081C29.5836 88.7949 29.2126 89.6363 28.1639 89.7638C27.9464 89.7893 27.7802 90.057 27.5627 90.1973C26.6674 90.771 26.2325 91.7654 25.4396 92.441C24.135 93.5374 22.8943 94.7103 21.5769 95.7685C19.9654 97.0561 18.5457 98.5859 16.8574 99.7971C16.1027 100.332 15.3098 100.919 15.0028 101.901C14.9261 102.168 14.7214 102.411 14.504 102.602C14.018 103.048 13.5575 103.532 13.0843 103.991C12.8029 104.552 12.5215 105.113 12.2529 105.674C11.4343 107.344 10.4111 108.963 9.47745 110.633C9.26002 111.029 9.04259 111.437 8.83794 111.832C8.36471 112.75 7.94263 113.68 7.62288 114.637C7.50777 114.981 7.37987 115.287 7.23918 115.593C7.03453 116.931 6.79152 118.257 6.39503 119.57C5.67878 121.954 5.19275 124.389 5.1288 126.888C5.09043 128.558 5.51251 130.165 5.70436 131.809C6.12643 135.493 8.28797 138.158 10.5518 140.784C10.8716 141.154 11.3064 141.434 11.7285 141.689C13.5319 142.773 15.3481 143.844 17.2667 144.749C19.9014 145.986 22.6897 146.304 25.5291 146.177C27.8057 146.075 30.0824 145.782 32.3462 145.578C32.6788 145.552 33.0113 145.552 33.3439 145.578C35.7484 145.743 38.1274 146.126 40.5191 146.406C43.2306 146.725 45.9038 147.477 48.6665 147.324C48.999 147.312 49.3443 147.324 49.6129 147.567C50.2141 148.089 50.8664 148.038 51.6082 147.847C53.0918 147.477 54.5116 146.84 56.0847 146.802C58.2463 146.738 60.4078 146.547 62.5566 146.547C64.4239 146.547 66.189 146.253 67.8901 145.476C68.1842 145.336 68.4784 145.132 68.8365 145.259C69.7574 145.59 70.5248 145.17 71.3178 144.787C72.8654 144.061 74.1189 143.041 75.206 141.83C76.306 139.114 77.7768 136.577 79.2093 134.002C80.6546 131.427 82.0232 128.89 83.6987 126.531C83.9417 125.741 84.1463 124.963 84.2231 124.147C84.4533 121.929 84.3638 119.711 84.4661 117.48C84.594 114.866 84.1847 112.278 83.4685 109.741C82.6755 106.949 82.0232 104.132 81.2941 101.327C80.4244 97.9995 79.6186 94.6593 78.3012 91.4721C77.5978 89.7511 76.9327 88.0045 76.4211 86.2069C75.8839 84.3328 75.4107 82.4333 74.6177 80.6612C74.0549 79.3991 73.7096 78.086 73.4538 76.7474C73.0573 74.5928 72.6736 72.4383 72.2387 70.2837C72.0596 69.3913 71.6248 68.5754 71.6631 67.632C71.7271 65.8854 71.2411 64.2918 70.2562 62.8257C69.5784 61.8186 69.3609 60.6457 69.1691 59.2433C70.2051 59.919 70.8957 59.5238 71.4713 58.8226C71.6504 58.6059 71.7655 58.6059 71.9829 58.7079C72.5712 59.0011 73.134 58.8099 73.6456 58.5294C74.4386 58.0832 75.2955 57.9685 76.1653 57.9302C76.7025 57.9047 77.2397 57.8027 77.7768 57.7772C79.2349 57.7262 80.5779 57.0506 82.0743 57.1781C83.4812 57.2928 84.8626 57.1398 86.2567 56.7828C87.4206 56.4896 88.5206 55.9924 89.6717 55.7757C91.0658 55.508 92.2553 54.8833 93.368 54.0674C93.7389 53.7996 94.0075 53.3662 94.404 53.1877C96.0923 52.4483 97.1667 50.9822 98.4713 49.8093C100.415 48.05 101.822 45.8189 103.472 43.8174C104.38 42.721 105.097 41.4334 105.787 40.1967C106.299 39.2916 106.836 38.3354 107.194 37.341C107.488 36.5379 107.463 35.6327 107.719 34.8168C107.987 34.0009 108.026 33.1977 107.936 32.3818L107.962 32.4073ZM89.5694 12.0475C89.774 11.7416 90.2344 11.7798 90.5798 11.6651C91.1809 11.6651 91.5518 12.0603 91.9227 12.43C92.0634 12.5702 91.9995 12.736 91.8844 12.8635C91.6669 13.1057 91.4751 13.3734 91.2321 13.5901C90.8995 13.8961 90.567 13.8961 90.3112 13.4754C90.1833 13.2714 90.1065 13.0292 89.9658 12.838C89.7868 12.583 89.3519 12.3918 89.5821 12.0348L89.5694 12.0475ZM89.3775 10.7472C88.8787 11.1296 88.4822 11.2699 87.9962 10.9002C86.9602 10.097 85.8474 9.39581 84.9649 8.40141C86.4613 9.10259 87.9706 9.75277 89.3775 10.7599V10.7472ZM89.0961 14.8523C88.5973 14.5718 88.1752 14.2148 87.9834 13.4372C88.6613 13.8196 89.0705 14.1638 89.0961 14.8523ZM86.3334 16.7008C85.937 17.096 85.4253 17.249 84.9009 17.3383C84.4149 17.4275 84.2487 17.0578 84.108 16.7136C83.9417 16.3439 84.2487 16.2036 84.5045 16.0634C85.2335 15.6554 85.5277 15.7574 86.3462 16.6881L86.3334 16.7008ZM84.6324 12.2643C84.8114 12.4938 85.0416 12.7105 84.7347 12.9782C84.4917 13.1694 84.2231 13.4372 83.8777 13.1949C83.6091 13.0165 83.3533 12.8125 83.2126 12.379C83.7243 12.0985 84.1335 11.6396 84.6324 12.2643ZM82.8034 13.6156C82.9824 13.6029 83.1103 13.6921 83.1103 13.8834C83.1103 14.0236 82.9952 14.0746 82.8801 14.1256C82.6883 14.1256 82.5859 14.0363 82.5859 13.8451C82.5859 13.7049 82.6883 13.6284 82.8162 13.6156H82.8034ZM79.3244 7.64923C79.7721 8.28667 80.5139 8.36316 81.1279 8.79662C80.8721 9.26832 80.4756 9.62529 80.0023 9.43406C79.6314 9.28107 79.3756 8.82212 79.107 8.46515C78.9535 8.26117 79.0175 8.0062 79.3244 7.63649V7.64923ZM78.5187 15.8722C79.171 15.5152 79.836 15.1837 80.4883 14.8395C80.7953 14.6738 81.0383 14.712 81.243 15.0053C81.4988 15.3877 81.1534 15.5152 80.936 15.6809C80.5395 15.9869 80.143 16.2546 80.3732 16.8921C80.5907 17.4913 80.1558 17.5805 79.8616 17.5805C79.0942 17.5932 78.3524 16.9813 78.2884 16.4331C78.2629 16.2164 78.3396 15.9997 78.5187 15.8977V15.8722ZM72.7247 5.27797C73.2747 5.37996 73.3003 5.91541 73.5561 6.27237C73.7351 6.52735 74.0037 7.34327 74.4642 6.42536C74.5665 6.23413 74.72 6.25962 74.8735 6.37436C76.306 7.35601 77.3548 8.66913 78.135 10.199C78.3396 10.5814 78.2501 10.9129 77.8536 11.1551C77.3548 11.4484 76.8943 11.7926 76.4722 12.2005C76.0502 12.5957 75.7432 12.4938 75.3723 11.9838C74.7328 11.0914 74.72 11.0786 75.5386 10.1735C75.8583 9.81652 75.9223 9.42131 75.7048 9.03885C75.513 8.69463 75.1293 8.82212 74.7967 8.82212C74.3619 8.82212 73.991 9.43406 73.5305 9.0261C73.1852 8.72013 73.0701 8.24843 72.9933 7.78947C72.9294 7.41976 72.6864 7.22853 72.405 7.02455C71.7399 6.56559 71.3945 5.86441 70.9085 5.01025C71.6887 4.972 72.1875 5.20148 72.6991 5.30347L72.7247 5.27797ZM78.071 13.1822C77.7896 13.6156 77.4954 13.7049 77.0734 13.7176C77.3036 13.3352 77.5722 13.2204 78.071 13.1822ZM71.1899 13.3224C71.791 12.889 72.3922 12.4555 72.9933 12.0348C73.2747 11.8436 73.5433 11.8563 73.7479 12.1495C73.9142 12.379 74.1061 12.6085 74.234 12.8635C74.6049 13.5774 74.4642 13.8579 73.6584 13.8069C72.891 13.7559 72.2131 14.1383 71.4713 14.1383C71.2155 14.1383 70.9725 14.1383 70.8829 13.8324C70.8829 13.5901 71.0108 13.4499 71.1899 13.3224ZM70.4481 11.3974C70.4481 11.3974 70.2946 11.4229 70.2179 11.4484C69.9493 11.3719 69.8981 11.1169 70.026 10.9767C70.5376 10.454 71.1387 10.046 71.7655 9.66353C71.8934 9.58704 72.0852 9.66353 72.1875 9.81652C72.2771 9.9695 72.3282 10.148 72.1748 10.2627C71.612 10.6579 71.0236 11.0276 70.4481 11.4101V11.3974ZM72.3282 16.7391C73.4026 16.2164 74.1956 15.222 75.5513 14.763C75.27 15.8467 75.5514 16.5096 76.3827 16.9558C76.5106 17.0196 76.5746 17.2108 76.5106 17.3893C76.4467 17.5805 76.2676 17.606 76.1141 17.6187C75.0014 17.6697 73.9014 17.6952 72.7887 17.7335C72.5329 17.7335 72.2899 17.6825 72.1748 17.4148C72.0596 17.1598 72.1236 16.8283 72.3154 16.7391H72.3282ZM68.261 4.46205C68.3377 4.5258 68.4784 4.60229 68.5935 4.71703C69.3353 5.4947 69.8853 6.41261 70.4865 7.30502C70.8702 7.89146 70.2946 8.10819 70.0132 8.38866C69.3353 9.0516 69.1691 9.0006 68.8749 8.10819C68.5551 7.17753 68.2226 6.24687 67.7366 5.37996C67.5575 5.06124 67.8901 4.46205 68.2738 4.46205H68.261ZM68.3249 17.8992C67.8517 17.9247 67.3401 17.708 67.0331 17.3C66.8157 16.9941 66.8924 16.6243 67.3017 16.5224C67.7621 16.4204 68.261 16.4076 68.6958 16.3694C68.8877 16.6626 68.7086 16.8283 68.6575 17.0068C68.5679 17.3128 68.9133 17.861 68.3377 17.8992H68.3249ZM66.2145 13.9599C66.6878 12.94 67.6726 12.7997 68.4528 12.2515C68.2865 13.0929 68.0052 13.2969 66.2145 13.9599ZM66.0611 6.47635C66.3169 6.42536 66.4448 6.61659 66.5343 6.79507C67.0843 7.81497 67.404 8.93686 67.7621 10.0332C67.8005 10.1735 67.7621 10.403 67.6726 10.4922C67.1994 10.9384 66.675 11.3209 66.2785 11.8563C66.2145 11.9328 66.0483 11.9328 65.9587 11.9711C65.6774 11.9328 65.6262 11.7416 65.575 11.5376C65.332 10.454 65.1913 9.34482 64.8076 8.28667C64.6541 7.85321 65.5878 6.56559 66.0611 6.47635ZM63.8739 11.8436C63.7205 11.3209 63.6309 10.9639 63.4902 10.4795C63.729 10.8789 63.8569 11.3336 63.8739 11.8436ZM61.7508 10.9129C62.0322 11.2826 62.1089 11.7161 62.1473 12.1495C62.1856 12.6085 62.224 13.0547 62.467 13.4499C62.7996 13.9726 62.6845 14.3551 62.1473 14.6738C61.8019 14.8778 61.5206 15.1965 61.0729 15.2475C60.7915 14.61 60.8171 13.9344 60.6636 13.2969C60.2671 11.6396 60.395 11.7798 61.7508 10.9129ZM60.9962 20.2067C60.6252 21.8386 59.8195 23.4322 58.873 24.4266C58.2974 23.8656 58.387 23.3047 58.7451 22.6672C59.2951 21.6856 60.2671 21.0991 60.9962 20.2067ZM59.4997 18.2434C59.4997 18.4984 59.4102 18.7406 59.1416 18.8299C59.0009 18.8809 58.9114 18.7534 58.9114 18.6131C58.8986 18.3454 59.0009 18.1414 59.2695 18.0394C59.4358 18.0012 59.4997 18.1159 59.4997 18.2434ZM58.873 13.2969C59.2951 14.1383 59.2567 15.0435 59.4102 15.9869C58.08 14.8778 57.9265 14.0618 58.873 13.2969ZM57.8882 9.19183C58.0033 8.9751 58.1184 8.74563 58.3998 8.74563C58.4253 8.74563 58.5021 8.87311 58.4893 8.93686C58.4381 9.15359 58.2335 9.23008 58.0672 9.34482C58.0288 9.37031 57.9905 9.37031 57.8498 9.42131C57.8754 9.26832 57.8754 9.23008 57.8882 9.19183ZM56.494 15.5789C56.8522 15.9359 56.6603 16.3184 56.3405 16.6626C55.7778 17.2618 55.2534 17.8992 54.665 18.4857C54.1534 18.9956 53.5907 19.4673 53.0407 19.9518C52.964 19.888 52.8872 19.837 52.8105 19.7733C53.2453 18.6896 53.143 17.351 54.5883 16.7901C54.972 16.6371 55.2406 16.1654 55.5603 15.8594C55.8162 15.6044 56.1103 15.222 56.4812 15.5789H56.494ZM52.6314 11.2444C53.4244 11.2699 54.1279 11.0276 55.0487 10.7982C54.1918 12.379 53.7058 13.8451 52.8616 15.222C52.2861 14.559 52.7849 13.9089 52.6954 13.2969C52.593 12.6467 52.5035 11.9966 52.6314 11.2571V11.2444ZM53.0023 22.4123C54.1151 21.6218 55.0743 20.6529 56.0208 19.6713C56.2126 19.4673 56.4301 19.2633 56.8522 19.2378C57.2231 20.2322 56.8905 20.9589 56.1359 21.5581C54.8825 22.5525 53.6546 23.5851 52.4012 24.5796C52.107 24.809 52.0558 25.268 51.5059 25.3445C51.8768 24.2481 51.9663 23.1517 53.0151 22.4123H53.0023ZM56.4557 31.9101C56.4557 31.9101 56.6219 31.9738 56.6347 32.0248C56.6603 32.3053 56.6091 32.573 56.3022 32.675C56.251 32.6367 56.1999 32.624 56.1999 32.5985C56.1231 32.3053 56.1999 32.0631 56.4685 31.9101H56.4557ZM53.2965 30.4057C54.2302 28.4552 55.0232 26.6448 56.4557 25.2297C56.2894 27.4098 55.7522 29.3603 53.2965 30.4057ZM51.6849 28.4807C52.0303 28.3532 52.3372 28.1492 52.6698 27.9707C52.7465 28.0217 52.8233 28.0727 52.8872 28.1237C52.3628 29.4113 51.6849 30.6097 50.8792 31.7571C50.6361 32.1013 50.3931 32.42 50.1245 32.7515C49.9838 32.9172 49.9199 33.2997 49.6001 33.0447C49.3955 32.8917 49.5234 32.624 49.6769 32.5093C50.4315 31.9356 50.1501 31.0432 50.278 30.3165C50.4443 29.3731 50.828 28.8121 51.6849 28.4934V28.4807ZM52.7721 36.5634C52.2477 38.0422 51.3652 38.4374 50.0478 38.3864C50.7896 37.545 51.6977 37.1753 52.7721 36.5634ZM50.764 35.8367C51.0582 34.1283 51.557 33.4527 52.7337 33.1722C52.5802 34.4343 52.2093 35.518 50.764 35.8367ZM48.1037 38.3227C48.2188 38.8199 47.656 38.7434 47.234 38.5649C47.6432 37.647 47.8223 36.6526 48.5641 35.9259C48.4234 36.7291 47.8863 37.4048 48.1037 38.3354V38.3227ZM43.8957 30.1762C44.0236 32.2033 42.6551 32.5603 41.2993 33.2232C41.9516 31.9228 42.9237 31.1834 43.8957 30.1762ZM40.7622 30.5842C40.5447 30.6479 40.3529 30.5842 40.2505 30.3802C40.1482 30.1762 40.2761 29.985 40.3912 29.832C40.5447 29.6153 40.7238 29.679 40.8901 29.832C41.0307 29.9468 41.261 29.9723 41.3249 30.189C41.2354 30.4695 40.9924 30.5205 40.7622 30.5969V30.5842ZM41.4272 28.4424C42.0795 25.8289 43.7934 24.3501 46.3642 23.2664C45.8398 24.4266 45.6224 25.4337 45.3282 26.4026C45.3026 26.4791 45.2771 26.5811 45.2259 26.6193C44.0748 27.4353 42.9493 28.3149 41.4272 28.4297V28.4424ZM43.269 36.3721C43.7806 35.6964 43.9085 34.855 44.2155 34.1029C44.369 33.7204 44.4585 33.2997 44.8166 33.032C45.9677 32.1778 47.1189 31.3364 48.27 30.4822C47.7967 33.3124 46.4026 35.7092 45.4306 38.3227C44.548 38.106 44.0876 37.341 43.3586 36.9968C43.0772 36.8693 43.09 36.6016 43.269 36.3721ZM48.8583 34.9698C48.9478 35.3395 48.6665 35.5435 48.6025 35.8112C48.4874 35.518 48.4618 35.2375 48.8583 34.9698ZM48.4107 27.754C47.8863 27.8177 47.3619 27.8305 46.684 27.8815C47.4514 26.7596 48.5769 26.2624 49.6257 25.3317C49.485 26.0839 49.4211 26.6448 49.2676 27.1675C49.1525 27.5755 48.7816 27.703 48.3979 27.7412L48.4107 27.754ZM47.6305 23.8146C48.3083 22.6672 48.3339 21.1501 49.6129 20.347C49.7536 20.2577 49.8559 20.1302 50.1501 20.143C50.6745 22.0426 49.5618 23.1772 48.2828 24.2226C48.1165 24.3628 47.9118 24.4266 47.72 24.2608C47.5793 24.1461 47.5537 23.9549 47.6305 23.8146ZM50.9559 12.991C50.9047 14.1893 50.8408 15.3877 50.7896 16.5861C50.764 17.3 50.3931 17.7335 49.549 17.963C49.7408 17.1598 49.8559 16.4714 50.0606 15.8084C50.3292 14.8905 50.6745 13.9981 50.3548 13.0164C50.2652 12.7487 50.4059 12.481 50.7001 12.4938C50.9431 12.4938 50.9431 12.787 50.9431 12.991H50.9559ZM47.2212 11.6651C47.3363 11.5121 47.5281 11.3846 47.7072 11.2954C48.7048 10.7982 49.7025 10.3137 50.8919 9.74003C50.7001 10.352 50.3292 10.5432 49.9966 10.7854C49.2932 11.2954 48.6025 11.8181 47.8991 12.328C47.7456 12.4428 47.5665 12.6467 47.3619 12.4428C47.1572 12.226 47.0293 11.9456 47.2212 11.6651ZM45.2259 21.5199C45.827 20.5637 46.3898 19.6968 46.991 18.7279C47.1316 20.3215 46.5689 21.2266 45.2259 21.5199ZM45.2259 17.1725C45.5201 16.5224 46.1596 16.1526 46.7863 15.7702C46.7479 16.7773 45.827 17.3765 45.5585 18.2562C45.2643 19.2378 44.4585 19.9008 44.062 20.8187C43.6655 21.7238 43.0772 22.5143 42.4121 23.2409C43.1411 21.1119 44.3178 19.1996 45.2259 17.1853V17.1725ZM41.9644 19.4418C42.0667 19.5948 42.0284 19.7733 41.8877 19.8753C41.2226 20.3342 40.5447 20.7804 39.8668 21.2394C39.9564 19.9645 40.9924 19.8115 41.7598 19.3398C41.7982 19.3143 41.9133 19.3781 41.9516 19.4418H41.9644ZM40.7877 15.6427C40.5447 16.2546 40.1354 16.1781 39.4448 16.0889C39.9947 15.7829 40.2761 15.5407 40.7877 15.6427ZM38.639 24.4138C39.1122 23.8784 39.5215 23.2409 40.3273 22.884C40.1994 23.9931 39.6622 24.8345 39.3169 25.7269C39.2785 25.8417 39.1378 25.9054 39.0227 25.8544C38.9076 25.8034 38.818 25.7014 38.8692 25.5612C38.9076 25.4465 38.9843 25.3445 39.0355 25.2297C39.2018 24.809 38.2425 24.8473 38.639 24.4011V24.4138ZM35.774 27.8305C36.5414 27.0401 37.6286 27.0528 38.7669 26.6321C38.6262 27.4608 38.2553 27.9197 38.0506 28.4552C37.9867 28.6209 37.8588 28.7611 37.6797 28.7484C36.5414 28.6846 35.4798 29.1053 34.3799 29.2966C34.2136 29.3221 34.0217 29.2966 33.9706 29.1181C33.9194 28.8504 34.1241 28.7484 34.3415 28.7229C34.9682 28.6591 35.3775 28.2639 35.7868 27.8305H35.774ZM35.3263 23.9166C35.1217 24.5923 34.9171 25.2935 33.8811 25.523C34.2136 24.7198 34.6996 24.2736 35.3263 23.9166ZM31.08 18.9191C31.6556 18.2944 32.2183 17.6315 33.2927 17.5805C32.8834 18.4729 32.0521 18.7916 31.5532 19.4291C31.4126 19.5948 31.1951 19.6203 31.0161 19.4546C30.8114 19.2506 30.9521 19.0848 31.0928 18.9319L31.08 18.9191ZM32.4741 28.5189C32.2183 28.9779 31.7835 29.3476 31.6811 29.8958C31.6428 30.1252 31.4509 30.24 31.2591 30.3165C29.3661 31.1069 27.6139 32.1905 25.6826 33.4017C25.8105 32.5093 26.2709 32.114 26.5011 31.5914C26.7441 31.0559 27.179 30.7499 27.8057 31.0814C28.2406 31.3109 28.4964 31.2216 28.6115 30.7244C28.6371 30.6224 28.765 30.495 28.8673 30.4822C30.3638 30.3292 31.0161 29.0926 31.873 28.1237C32.1032 27.856 32.2823 27.3078 32.6916 27.5882C33.1264 27.8815 32.6276 28.2257 32.4741 28.5062V28.5189ZM31.7707 22.9987C31.4765 24.2481 30.2742 26.0966 29.3789 26.5811C30.1335 25.4592 30.8882 24.3246 31.7707 22.9987ZM29.008 18.4729C28.3557 19.1741 26.5651 19.8243 25.171 19.9263C26.2965 18.9701 27.5883 18.8554 29.008 18.4729ZM26.9616 27.4098C26.7569 28.4552 26.5139 29.4623 25.107 29.4751C25.7209 28.7866 26.3477 28.0982 26.9616 27.4098ZM20.4514 25.421C20.1444 26.4409 19.7863 26.8998 18.7759 27.652C19.0445 26.7468 19.7224 26.1476 20.4514 25.421ZM18.6991 27.754C18.6736 28.3914 18.2003 28.5444 17.6504 28.7866C17.8294 28.1492 18.2771 27.9707 18.6991 27.754ZM12.5727 28.6209C12.4959 29.4751 11.7669 29.6153 11.6518 30.1252C11.4855 29.4496 12.0483 29.1946 12.5727 28.6209ZM11.575 30.189C11.3704 30.2782 11.2937 30.4822 11.1658 30.6479C10.9995 30.8519 10.8076 31.0432 10.5135 30.9539C10.6286 30.3547 10.9995 30.1125 11.575 30.189ZM10.4751 31.0049C10.4751 31.3109 10.4239 31.6041 9.9379 31.7443C9.96348 31.3236 10.2193 31.1706 10.4751 31.0049ZM9.92511 39.2916C10.0402 39.0366 10.1425 38.6669 10.5262 38.9346C11.332 39.5083 11.946 39.0494 12.5471 38.5904C13.8645 37.5578 14.8749 36.2574 15.8342 34.8933C16.8829 33.4144 17.9701 31.9483 19.0445 30.495C19.2363 30.24 19.4921 30.0233 19.7224 29.781C19.7224 30.3037 19.5689 30.7627 19.5433 31.2599C19.5433 31.5276 19.4154 31.8718 19.2235 32.0503C17.6376 33.4909 17.1899 35.5817 16.1155 37.3155C16.0772 37.3793 16.0132 37.4685 16.0132 37.5323C16.0516 38.1315 16.0644 38.6796 15.3737 38.9729C14.261 39.4573 13.3657 40.5027 11.946 40.0693C11.396 39.9035 10.8076 39.8908 10.2321 39.7888C9.96348 39.7378 9.75883 39.5976 9.91232 39.2788L9.92511 39.2916ZM17.9701 36.6908C17.9445 36.9458 17.8934 37.3283 17.6504 37.2518C17.3818 37.1625 17.6759 36.9331 17.7783 36.7801C17.8166 36.7291 17.8934 36.7163 17.9573 36.6908H17.9701ZM8.36471 34.1283C8.59493 34.4343 8.71004 34.6638 8.8891 34.804C9.20886 35.059 9.23444 35.314 9.06817 35.6709C8.55656 36.7928 8.04495 37.9147 7.55893 39.0494C7.25197 39.7505 6.8171 39.3171 6.4334 39.1896C6.02411 39.0621 5.98574 38.8071 6.26712 38.4374C7.11127 37.3028 7.23918 35.8239 8.04495 34.6638C8.13449 34.5363 8.21123 34.3833 8.36471 34.1156V34.1283ZM3.81142 37.8C4.52766 36.9331 4.93695 35.7984 6.27991 35.0845C5.99853 36.4741 5.29507 37.3538 4.91137 38.3737C4.79626 38.6796 4.11838 38.6796 3.81142 38.4374C3.54282 38.2207 3.65793 37.9785 3.81142 37.8ZM37.8972 86.2069C38.0762 87.3543 37.2065 87.8387 36.6949 88.4889C36.9507 87.6858 37.2832 86.9336 37.8972 86.2069ZM34.9426 92.2498C36.4647 90.6817 37.4623 88.6929 39.0739 87.1886C39.7134 86.5766 39.8413 85.5567 40.4808 84.881C40.5959 84.7663 40.6342 84.5878 40.9412 84.5113C40.7621 85.7097 40.4296 86.6659 39.5471 87.5073C38.396 88.6164 37.4751 89.9678 36.4391 91.1917C35.9914 91.7144 35.4926 92.2116 35.0322 92.696C34.7508 92.5048 34.8403 92.3518 34.9426 92.2498ZM38.1146 77.525C38.5495 76.9131 38.5367 76.2119 38.6774 75.5362C38.9971 73.9936 39.4448 72.4893 39.611 70.9084C39.6366 70.628 39.6622 70.2582 39.9308 70.1308C40.7749 69.7228 40.6982 68.9324 40.8261 68.2185C40.9796 67.3643 40.7621 66.4719 41.0691 65.6305C42.0795 67.6575 39.5087 75.1283 38.1146 77.525ZM40.6598 82.9305C40.6343 83.0962 40.5191 83.2237 40.3529 83.2874C40.2122 83.2237 40.1994 83.0962 40.2378 82.9942C40.2761 82.8922 40.3657 82.7647 40.4552 82.7265C40.5959 82.6755 40.6854 82.803 40.6598 82.9305ZM77.1501 96.6991C76.7664 96.2911 76.5874 95.9469 76.5874 95.284C76.9455 95.7685 77.0606 96.1127 77.1501 96.6991ZM75.9478 93.4354C76.2932 93.4992 76.2292 93.7924 76.3315 94.1621C75.999 93.8944 75.8839 93.7032 75.9478 93.4354ZM71.4713 88.8077C71.8038 88.9224 71.8678 89.1774 71.9189 89.4068C72.4945 92.1223 73.9142 94.5828 74.4386 97.3238C74.6432 98.4329 75.1421 98.7517 76.2548 98.7134C76.7664 98.7007 77.0606 98.3564 77.2908 97.4258C77.7385 98.1907 77.8408 98.9684 78.0326 99.6951C79.1198 103.902 80.1046 108.147 81.243 112.342C81.972 115.045 81.9464 117.824 81.8313 120.616C81.4092 119.213 80.9104 117.824 80.5907 116.409C79.7977 112.852 78.2373 109.601 76.7153 106.337C75.7176 104.208 74.5537 102.105 73.8886 99.8608C73.2619 97.77 72.4945 95.7047 72.1875 93.5119C72.0341 92.3645 71.7655 91.2299 71.5608 90.0953C71.4841 89.6746 71.3434 89.2411 71.4969 88.7821L71.4713 88.8077ZM70.4992 106.273C70.576 106.554 70.6399 106.822 70.8829 107.038C71.2922 107.395 71.7527 107.587 72.2515 107.383C72.7503 107.179 72.8654 106.681 72.7375 106.222C72.5073 105.317 72.7375 104.45 72.7247 103.507C73.1852 103.673 73.1724 104.068 73.3003 104.336C74.5026 106.924 75.6793 109.537 76.8815 112.125C77.585 113.642 77.8536 115.287 78.3524 116.868C79.0558 119.035 79.5035 121.266 79.9512 123.51C80.1686 124.593 80.143 125.626 79.9256 126.71C79.657 128.048 79.4651 129.412 78.9024 130.674C77.6745 133.415 76.0374 135.876 73.9654 138.069C72.2387 139.892 70.4481 141.575 68.2482 142.824C66.4703 143.831 64.5902 144.379 62.5566 144.418C62.4414 144.418 62.3391 144.354 62.0322 144.252C64.539 143.13 66.8285 141.97 68.8877 140.389C70.9213 138.834 73.0701 137.444 74.8351 135.532C74.3619 135.06 73.9782 134.614 73.3898 135.111C71.7655 136.475 69.8342 137.393 68.1459 138.642C66.6366 139.764 64.9995 140.618 63.3495 141.485C61.9554 142.212 60.4206 142.633 58.8986 143.041C58.387 143.181 57.9137 143.257 57.3382 143.002C56.8394 142.773 56.1999 143.002 55.6243 143.104C54.8441 143.257 54.0767 143.423 53.2965 143.563C52.9 143.64 52.4907 143.806 52.35 143.168C52.2861 142.875 51.9407 143.003 51.6977 143.028C51.4291 143.066 51.1989 143.359 50.828 143.117C50.9431 142.646 51.378 142.748 51.6849 142.658C52.0686 142.544 52.2733 142.327 52.2093 141.944C52.1326 141.511 51.7617 141.46 51.4291 141.549C50.6617 141.74 49.9071 141.957 49.1653 142.212C47.9374 142.633 46.6712 142.811 45.3794 142.85C43.6911 142.913 42.0028 143.155 40.3145 142.735C39.4192 142.518 38.4855 142.709 37.603 142.913C36.6181 143.13 35.6717 143.257 34.6485 142.99C33.8171 142.773 32.9218 142.735 32.0521 142.646C30.044 142.429 28.1255 141.893 26.2453 141.243C24.1094 141.077 21.9862 140.912 19.8375 140.988C19.198 141.014 18.584 140.924 18.0085 140.759C17.7015 140.797 17.3818 140.835 17.0364 140.835C14.1203 140.835 12.2529 139.229 11.4088 137.164C10.7437 136.284 10.3216 135.226 10.1681 134.129C9.47745 132.714 9.29839 131.044 9.64372 129.489C9.52861 128.227 9.42629 127.028 9.33676 125.83C9.26002 124.632 9.19607 123.433 9.29839 122.248C9.56698 119.15 9.98906 116.064 11.5111 113.272C11.8692 112.622 12.2657 111.985 12.918 111.564C13.3401 111.296 13.6598 110.914 13.3529 110.429C12.9692 109.805 13.3529 109.359 13.647 108.989C14.7214 107.625 15.6295 106.159 16.6144 104.744C17.5352 103.418 18.8015 102.372 19.991 101.276C21.2316 100.129 22.6129 99.1596 23.828 97.974C25.2989 96.5461 26.8465 95.1693 28.3301 93.7414C28.701 93.3844 28.9824 93.002 29.251 92.5813C29.3917 92.3645 29.5196 92.1606 29.8394 92.2371C30.0568 92.5048 29.8522 92.798 29.8522 93.0657C29.8522 93.2825 29.8266 93.5502 30.0824 93.5629C30.9905 93.6139 30.6068 94.0601 30.3893 94.4553C29.6987 95.692 28.765 96.7374 27.8697 97.821C26.45 99.5421 24.7105 100.995 23.585 102.959C22.6129 104.642 21.2444 105.967 19.7479 107.153C18.6991 107.982 18.2131 109.078 17.7655 110.238C17.062 112.049 17.2794 113.935 17.3306 115.809C17.3306 116.23 17.5736 116.549 17.9701 116.625C18.405 116.702 18.6352 116.37 18.7631 115.988C18.8143 115.835 18.8526 115.669 18.891 115.503C19.4282 112.915 20.7839 110.748 22.4595 108.759C23.7385 107.242 24.9919 105.7 26.2709 104.17C26.6674 103.711 27.0127 103.175 27.7674 103.214C28.2022 103.239 28.4197 102.933 28.5092 102.513C28.7778 101.212 29.5452 100.192 30.351 99.1851C30.6324 98.8282 30.9521 98.4839 31.1823 98.1015C31.7195 97.1581 32.5253 96.5971 33.459 96.0744C34.8659 95.284 36.1193 94.2641 37.0786 92.9255C37.4239 92.4538 37.9867 92.1351 38.6646 91.5741C38.4983 92.3008 38.1785 92.6578 38.1146 93.1295C38.0506 93.5629 38.089 93.8689 38.5239 94.0219C38.9587 94.1876 39.3552 94.1621 39.5727 93.6777C40.0587 92.5813 40.5319 91.4721 40.9796 90.363C41.4528 89.2284 41.6447 87.9662 42.6039 87.0611C42.7063 86.9591 42.783 86.7424 42.7446 86.6149C42.297 85.3017 43.1795 84.2436 43.4353 83.0707C43.6527 82.0381 44.2666 81.0564 43.7295 79.96C43.6655 79.8453 43.755 79.6286 43.8062 79.4883C44.0748 78.8126 44.369 78.137 44.7783 77.4868C44.7783 78.4557 44.8038 79.4246 44.7783 80.3935C44.7399 81.2222 44.7783 82.0508 44.8678 82.8795C44.9062 83.3767 45.0085 83.8611 44.8038 84.3456C44.6376 84.7153 44.6631 85.1233 45.0724 85.3145C45.5329 85.5312 46.1084 85.6715 46.4538 85.2125C47.0293 84.4731 47.7584 83.8739 48.0525 82.8922C48.7304 80.6357 49.4083 78.3919 49.8559 76.0717C49.9455 75.5872 49.9838 75.09 50.3036 74.6566C50.5978 74.8988 50.6873 75.1793 50.6617 75.5235C50.5978 76.5179 50.7768 77.4995 50.9431 78.4812C51.2245 80.1258 51.2756 81.7831 51.2884 83.4277C51.2884 86.6659 51.557 89.8785 51.9152 93.0912C52.0047 93.8561 52.3884 94.2131 53.1046 94.2386C53.6802 94.2641 54.0127 93.9454 53.9616 93.3462C53.9104 92.645 53.8081 91.9438 53.7569 91.2427C53.6035 89.1264 53.9232 87.0356 54.2046 84.9448C54.6906 81.4389 54.665 77.9202 54.3325 74.4143C54.1662 72.6423 53.8848 70.8829 53.7058 69.1109C53.6035 68.1547 53.8593 67.275 54.4604 66.3954C54.9208 66.7906 54.9592 67.2495 54.9848 67.683C55.0871 69.1109 55.5987 70.4112 56.0208 71.7626C56.737 74.0446 57.4149 76.3649 57.7219 78.7489C57.7475 78.9911 57.7603 79.2461 57.8114 79.4883C58.0033 80.3552 58.4253 80.5975 59.359 80.3935C59.9474 80.266 60.216 79.7688 60.0881 79.0549C59.7171 76.9896 59.3079 74.9243 58.9625 72.8462C58.8346 72.0431 58.7835 71.2144 58.809 70.3857C58.8602 68.7284 58.873 67.0838 58.809 65.4265C58.7707 64.2026 59.1032 62.966 59.6532 61.8313C59.7171 61.6784 59.7811 61.5126 59.9857 61.5126C60.2415 61.5126 60.3567 61.6911 60.395 61.8951C60.4334 62.0991 60.4462 62.303 60.4334 62.507C60.1776 66.1149 60.8171 69.5953 61.8787 73.0247C62.2112 74.0956 62.3519 75.2175 62.4542 76.3266C62.7228 78.8891 63.567 81.3369 64.0146 83.8611C64.1681 84.7153 64.3344 85.5695 64.4879 86.4236C64.846 88.4634 65.7669 90.261 66.8413 91.9948C68.3761 94.4681 69.1946 97.1963 69.4377 100.078C69.6167 102.194 69.9876 104.259 70.4992 106.312V106.273ZM43.7039 58.5932C43.3713 58.9884 43.269 59.7278 42.6935 59.6386C42.2458 59.5748 41.8365 59.2306 41.2865 59.3836C41.9644 58.6569 42.9365 59.0011 43.7039 58.5932ZM41.6575 55.5717C42.0667 55.3422 42.3609 55.457 42.7446 55.5972C42.3481 55.9287 42.054 55.7502 41.6575 55.5717ZM44.9829 59.9955C45.2771 60.4672 45.2131 60.9772 45.2259 61.4361C45.3027 63.17 45.3027 64.891 44.9701 66.6121C44.8038 67.4535 44.4585 67.9507 43.6143 68.091C43.3074 66.0129 44.1132 61.0792 44.9701 59.9828L44.9829 59.9955ZM54.3837 59.5238C54.3069 59.4218 54.2302 59.3326 54.1662 59.2179C54.1534 59.1924 54.179 59.1414 54.1918 59.1031C55.4964 58.8481 56.2254 59.3836 56.2126 60.6075C56.1871 62.3923 55.5731 64.1006 55.4197 65.8727C55.4197 65.9874 55.3685 66.1277 55.2278 66.1404C55.0104 66.1659 54.7929 66.0894 54.6778 65.9237C54.4988 65.6687 54.5116 65.3627 54.5755 65.0823C54.7162 64.4321 54.8313 63.7819 55.036 63.1445C55.4452 61.8186 55.2534 60.6202 54.3964 59.5238H54.3837ZM54.4348 57.4713C53.6546 57.28 52.836 57.7135 52.107 58.1215C51.4036 58.5167 51.071 58.3254 50.9815 57.6243C50.9303 57.2036 51.0838 56.9741 51.4803 56.9358C51.8896 56.9103 52.3117 56.9358 52.7209 56.9613C54.4604 57.1016 56.1615 57.4458 57.8626 57.8155C58.8218 58.0195 59.8323 57.8027 60.9834 58.3127C59.8195 58.5039 59.0776 59.0776 58.323 59.8553C57.4405 58.2234 55.9057 57.8282 54.4476 57.4585L54.4348 57.4713ZM51.3268 65.3117C51.557 65.9747 51.6338 66.6376 51.4931 67.2878C51.1861 68.6647 50.8408 70.0288 50.8152 71.4439C50.7896 72.5913 50.1117 73.4964 49.7025 74.5163C49.2292 75.702 48.8199 76.9003 48.3083 78.0732C48.2828 77.1553 48.5641 76.2884 48.9351 75.498C49.7664 73.7514 50.099 71.9028 50.4315 70.0288C50.7129 68.4479 50.764 66.8288 51.3396 65.299L51.3268 65.3117ZM47.6049 74.1211C47.6049 70.9212 48.513 67.887 49.306 64.84C48.7048 67.9252 48.5641 71.0997 47.6049 74.1211ZM47.6305 61.7803C47.6305 61.7803 47.5665 61.8441 47.5409 61.8441C47.5153 61.8441 47.4898 61.7931 47.4386 61.7293C47.0805 60.4927 47.3235 59.0139 46.1084 57.9557C47.0293 57.7772 47.8351 57.6243 48.6665 57.4585C48.7176 57.6753 48.8072 57.8537 48.7688 57.994C48.3979 59.2561 48.0142 60.5182 47.6305 61.7676V61.7803ZM63.0682 59.1669C62.4926 59.2051 61.9554 59.1414 61.3799 58.5294C62.1089 58.3382 62.6205 58.6059 63.1449 58.5677C63.3368 58.5677 63.4263 58.6951 63.4007 58.8864C63.3751 59.0649 63.2472 59.1541 63.0682 59.1669ZM63.0682 68.0527C62.6973 66.4846 62.6333 65.1205 62.7996 63.7436C62.7484 65.1078 63.1705 66.4464 63.0682 68.0527ZM65.4727 70.7682C66.2145 72.6295 66.675 74.5418 67.1994 76.4414C67.7749 78.5322 67.9284 80.572 66.7517 82.6118C65.089 78.7489 65.4983 74.7331 65.4727 70.7809V70.7682ZM69.3865 91.4849C67.9412 89.8148 67.225 87.8515 66.8157 85.748C66.7517 85.4165 66.9052 85.2635 67.1738 85.2635C67.6982 85.2635 67.9284 84.8173 68.3633 84.3711C68.9005 86.8188 68.8621 89.1901 69.3737 91.4849H69.3865ZM82.9568 54.2713C83.0592 53.9399 83.3022 53.7741 83.6731 53.7486C83.5836 54.1566 83.1999 54.1311 82.9568 54.2713ZM95.9389 48.6109C96.2074 47.7312 96.847 47.5528 97.4097 47.0428C97.1028 47.6463 96.6125 48.169 95.9389 48.6109ZM104.828 34.3833C104.7 36.7036 103.882 38.7306 102.59 40.6047C101.925 41.5609 101.221 42.4788 100.531 43.4094C100.313 43.7026 100.083 44.0596 99.6224 43.8429C98.9317 43.5242 98.4201 43.9194 97.9213 44.3018C96.0284 45.7169 94.1482 47.1576 92.2553 48.5854C89.9658 50.2937 87.5741 51.8618 85.08 53.2514C84.9393 53.3279 84.7858 53.4172 84.594 53.3024C84.7858 52.9327 85.1312 52.7542 85.4637 52.5503C85.7579 52.3845 86.0521 52.2315 86.3079 52.0276C87.4334 51.1607 87.395 50.8164 86.0521 50.1917C86.6532 49.8348 87.216 49.4906 87.7787 49.1591C88.0473 48.9934 88.495 48.9041 88.3159 48.4707C88.0857 47.9352 87.6892 48.3177 87.3567 48.4069C87.3183 48.4069 87.2671 48.4324 87.2415 48.4579C86.3079 49.4013 84.9265 49.4141 83.8522 50.1025C82.8034 50.7654 81.6778 51.3136 80.5907 51.9001C80.1558 52.1423 79.7209 52.3845 79.2861 52.6268C79.1838 52.6905 79.0686 52.818 78.9663 52.818C77.5338 52.6905 76.5362 53.6977 75.3979 54.2586C73.927 54.9853 72.5329 55.6227 70.8318 55.6865C66.2145 55.8522 61.6485 55.661 57.108 54.743C55.1639 54.3478 53.1814 54.1056 51.2117 53.8379C48.8711 53.5192 46.5561 53.0985 44.2155 52.8052C40.7621 52.3718 37.3088 51.8108 33.8171 51.6324C31.3998 51.5049 29.0208 51.7216 26.629 51.8873C23.8919 52.0658 21.1549 52.308 18.4178 52.3335C16.819 52.3463 15.2074 51.9766 13.5959 51.7853C13.225 51.7343 12.8541 51.6833 12.4831 51.6324C11.4727 51.4921 10.539 51.6324 9.63093 52.206C8.58214 52.869 8.1217 52.8052 7.32871 51.9893C6.76594 51.4029 6.13922 50.8292 6.01132 49.9368C5.92179 49.3631 5.64041 48.9296 4.97532 48.8914C4.50208 48.8659 4.28465 48.4962 4.05443 48.1392C2.80099 46.2779 2.39171 44.1871 2.35334 41.9943C2.35334 41.5354 2.35334 41.0764 2.35334 40.6302C2.35334 40.2987 2.49403 40.0565 2.86494 40.0565C3.21028 40.0565 3.55561 40.082 3.61956 40.5282C3.63235 40.6557 3.59398 40.7832 3.64514 40.8979C3.86258 41.4716 4.37418 41.6756 4.78347 41.2166C5.21833 40.7322 5.61483 40.8342 6.11364 40.9234C8.19844 41.2804 10.296 41.5864 12.3808 41.9433C13.8261 42.1855 14.9388 41.5226 16.0516 40.7704C17.548 39.7505 19.0701 38.7561 20.5793 37.7617C20.8095 37.6088 21.1165 37.5705 21.3979 37.4685C21.5513 37.4175 21.7176 37.341 21.8711 37.4685C22.0885 37.647 21.9606 37.8382 21.8711 38.0295C21.7176 38.3737 21.5514 38.7051 21.4107 39.0494C21.2955 39.3553 21.1549 39.674 21.1165 39.9928C21.0525 40.49 21.3851 40.7449 21.8455 40.8214C22.2548 40.8852 22.485 40.6429 22.5234 40.2732C22.6769 39.0494 23.278 38.004 23.8024 36.9331C24.0454 36.4231 24.3908 36.0152 24.8896 35.7857C26.3477 35.0973 27.6778 34.1921 29.072 33.4017C30.5172 32.5858 32.0265 31.9228 33.638 31.4766C34.6357 31.1961 35.5949 30.7882 36.567 30.4312C36.7588 30.3675 36.9763 30.2782 37.1425 30.4695C37.3216 30.6479 37.2321 30.8647 37.1425 31.0432C36.6054 32.0631 36.4135 33.2359 35.7228 34.1921C35.4287 34.6001 35.3135 35.0973 35.1856 35.5817C35.0705 36.0407 35.0066 36.5251 35.5694 36.7291C36.0937 36.9076 36.4519 36.5761 36.6821 36.1554C37.1042 35.3905 37.4879 34.6128 37.8844 33.8351C38.089 33.4272 38.2937 33.0192 38.5239 32.624C38.6646 32.369 38.8692 32.165 39.1378 32.0248C39.2913 31.9483 39.4703 31.8973 39.5855 32.0503C39.6494 32.1268 39.675 32.2798 39.6494 32.3945C39.5855 32.6367 39.4959 32.8662 39.4064 33.0957C39.0483 34.1028 39.3936 34.6893 40.4808 34.7785C41.0435 34.8295 41.6191 34.7785 42.2074 34.7785C42.2074 34.9698 42.2074 35.0973 42.1819 35.212C41.6319 36.7418 41.3889 36.7928 40.2122 35.6709C39.9052 35.3777 39.5471 35.1865 39.1762 34.9953C38.7541 34.7658 38.396 34.7275 38.1018 35.1737C37.8076 35.6199 38.153 35.8494 38.4343 36.0917C38.9971 36.5761 39.5343 37.1116 40.1226 37.545C40.6598 37.9402 40.8133 38.3227 40.3784 38.8836C40.1994 39.1131 40.0715 39.3808 39.982 39.6485C39.7901 40.2477 40.1738 40.6175 40.7877 40.4645C41.2226 40.3497 41.4912 40.0565 41.683 39.674C41.7982 39.4573 41.9261 39.2406 42.0412 39.0239C42.5016 38.2462 42.7318 38.1569 43.333 38.7944C43.7806 39.2661 44.5608 39.4446 44.612 40.3497C44.6376 40.8469 45.341 40.8724 45.7631 40.7067C47.4642 40.031 49.2804 40.4007 50.9815 39.9545C51.1477 40.4007 50.9559 40.643 50.8152 40.8724C50.4955 41.3696 50.7129 41.7776 51.0838 42.0708C51.4419 42.364 51.8512 42.2365 52.2349 41.9688C52.8616 41.5354 53.1302 40.8469 53.3349 40.1967C53.6674 39.1768 54.2813 38.4247 54.9976 37.647C57.3126 35.1482 58.9753 32.2543 59.9857 29.0034C60.5357 27.2185 61.1496 25.472 61.8403 23.7381C62.1473 22.9732 62.4031 22.1828 62.7484 21.4306C63.0426 20.8187 62.6589 20.3087 62.6333 19.7478C62.6205 19.4546 62.288 19.1103 62.6845 18.8426C63.1321 18.5366 63.6054 18.2817 64.1809 18.2689C64.2576 18.2689 64.3728 18.3199 64.3983 18.3709C64.6541 19.1741 65.3576 19.582 65.9204 20.1302C66.1506 20.3597 66.1634 20.7422 66.189 21.0736C66.2401 21.6983 66.3041 22.3103 66.3552 22.9222C66.3808 23.2154 66.3936 23.5342 66.7645 23.5851C67.1866 23.6489 67.5191 23.4832 67.6342 23.0625C67.7494 22.629 67.8773 22.1955 67.8005 21.7238C67.6854 21.0864 67.6598 20.4235 67.5703 19.633C68.7214 19.9135 69.7958 19.888 70.8446 19.786C71.4457 19.735 71.5992 20.1812 71.8294 20.5637C71.9957 20.8442 72.162 21.1884 72.584 21.0736C72.9677 20.9717 73.2747 20.7039 73.2235 20.2705C73.134 19.4673 73.6456 19.4036 74.2212 19.3398C74.963 19.2761 75.692 19.1996 76.4467 19.4291C75.8967 19.5438 75.3595 19.6585 74.8095 19.7733C74.3107 19.8753 73.9142 20.1557 74.0165 20.6912C74.1189 21.2139 74.5665 21.3796 75.0909 21.3031C77.3036 20.9462 79.5675 20.8697 81.6906 20.092C82.4069 19.837 82.9569 19.9135 83.558 20.296C84.2742 20.7422 84.6963 20.6402 84.9649 19.8498C85.1823 19.1996 85.5532 18.9446 86.18 18.7916C86.8195 18.6386 87.4206 18.3327 88.0345 18.0522C88.8275 17.6952 89.5438 17.6442 90.1833 18.3454C90.324 18.4984 90.503 18.6131 90.6821 18.7151C91.4879 19.2251 92.1402 18.8936 92.2041 17.912C92.2297 17.5422 92.2681 17.1088 92.1146 16.8156C91.7565 16.1526 92.0634 15.7319 92.4727 15.2857C92.6646 15.069 92.8308 14.8268 92.9971 14.5973C93.1634 14.3678 93.2018 14.0491 93.5855 13.8451C94.8773 14.5335 95.8621 15.6682 96.8342 16.7518C98.5736 18.7024 100.172 20.7804 101.592 22.9732C103.83 26.4409 105.084 30.1762 104.841 34.3706L104.828 34.3833Z" fill="black"/>
</g>
<defs>
<clipPath id="clip0_28_16">
<rect width="108" height="148" fill="white"/>
</clipPath>
</defs>
</svg>
