<svg width="205" height="205" viewBox="0 0 205 205" fill="none" xmlns="http://www.w3.org/2000/svg">
<path d="M102.481 120.371C112.214 120.371 120.104 112.463 120.104 102.707C120.104 92.9522 112.214 85.044 102.481 85.044C92.7478 85.044 84.8576 92.9522 84.8576 102.707C84.8576 112.463 92.7478 120.371 102.481 120.371Z" fill="#F8D86C" stroke="#F8D86C" stroke-width="1.74" stroke-miterlimit="10"/>
<path d="M102.481 135.725C120.675 135.725 135.424 120.942 135.424 102.707C135.424 84.4721 120.675 69.6896 102.481 69.6896C84.2871 69.6896 69.5381 84.4721 69.5381 102.707C69.5381 120.942 84.2871 135.725 102.481 135.725Z" stroke="#A62318" stroke-width="5" stroke-miterlimit="10"/>
<path d="M102.481 150.695C128.923 150.695 150.359 129.21 150.359 102.707C150.359 76.2047 128.923 54.7201 102.481 54.7201C76.0384 54.7201 54.6025 76.2047 54.6025 102.707C54.6025 129.21 76.0384 150.695 102.481 150.695Z" stroke="#A62318" stroke-width="5" stroke-miterlimit="10"/>
<path d="M102.481 168.166C138.55 168.166 167.79 138.859 167.79 102.707C167.79 66.5558 138.55 37.2492 102.481 37.2492C66.4114 37.2492 37.1713 66.5558 37.1713 102.707C37.1713 138.859 66.4114 168.166 102.481 168.166Z" stroke="#A62318" stroke-width="5" stroke-miterlimit="10"/>
<path d="M102.481 185.675C148.198 185.675 185.26 148.529 185.26 102.707C185.26 56.8856 148.198 19.7398 102.481 19.7398C56.7632 19.7398 19.7017 56.8856 19.7017 102.707C19.7017 148.529 56.7632 185.675 102.481 185.675Z" stroke="#A62318" stroke-width="5" stroke-miterlimit="10"/>
<path d="M102.481 202.415C157.423 202.415 201.962 157.774 201.962 102.707C201.962 47.6405 157.423 3 102.481 3C47.5391 3 3 47.6405 3 102.707C3 157.774 47.5391 202.415 102.481 202.415Z" stroke="#A62318" stroke-width="5" stroke-miterlimit="10"/>
<path d="M202 102.707C202 157.775 157.462 202.415 102.519 202.415C47.5763 202.415 3 157.775 3 102.707H202Z" fill="#173BF0" stroke="#173BF0" stroke-width="5" stroke-miterlimit="10"/>
</svg>
