<svg width="42" height="42" viewBox="0 0 42 42" fill="none" xmlns="http://www.w3.org/2000/svg">
<path d="M21 42C32.598 42 42 32.598 42 21C42 9.40202 32.598 0 21 0C9.40202 0 0 9.40202 0 21C0 32.598 9.40202 42 21 42Z" fill="#BF3605"/>
<path d="M20.5555 25.6356L18.3564 22.8686L20.0083 20.1946L18.1809 18.6046L18.8416 17.0043C16.9832 13.143 11.5732 12.5442 9.62188 16.4365C7.75315 20.1843 14.5157 30.7669 19.6366 31.6445C19.6573 31.6445 19.6676 31.6238 19.6883 31.6135L18.4906 27.9896L20.5555 25.6253V25.6356Z" fill="#FFEC9C"/>
<path d="M32.0681 14.9911C29.7967 11.6357 22.549 13.3908 21.2274 17.0147L20.5667 18.615L22.3941 20.205L20.7422 22.879L22.9413 25.646L20.8764 28.0103L22.074 31.6342C25.4708 29.6003 35.279 19.7301 32.0785 15.0015L32.0681 14.9911Z" fill="#FFEC9C"/>
</svg>
